<?xml version="1.0" standalone="no"?>
<!DOCTYPE svg PUBLIC "-//W3C//DTD SVG 20010904//EN"
 "http://www.w3.org/TR/2001/REC-SVG-20010904/DTD/svg10.dtd">
<svg version="1.0" xmlns="http://www.w3.org/2000/svg"
 width="768.000000pt" height="769.000000pt" viewBox="0 0 768.000000 769.000000"
 preserveAspectRatio="xMidYMid meet">

<g transform="translate(0.000000,769.000000) scale(0.100000,-0.100000)"
fill="#000000" stroke="none">
<path d="M3650 7683 c-513 -24 -1062 -168 -1532 -404 -566 -283 -1079 -731
-1439 -1254 -361 -523 -580 -1117 -655 -1770 -20 -180 -23 -592 -6 -765 81
-776 368 -1473 854 -2072 115 -141 389 -416 528 -530 393 -320 833 -557 1300
-701 80 -25 160 -48 178 -52 l32 -7 0 1271 0 1271 -395 0 -395 0 0 590 0 590
394 0 394 0 5 418 c5 442 12 527 63 760 32 152 73 273 138 408 69 144 140 248
240 352 239 249 551 392 1001 459 169 25 639 25 845 0 173 -21 369 -53 405
-67 l25 -10 0 -529 0 -530 -267 6 c-288 6 -425 -3 -560 -38 -189 -48 -327
-154 -401 -309 -75 -158 -92 -279 -92 -652 l0 -268 625 0 c392 0 625 -4 625
-10 0 -5 -47 -266 -105 -580 -58 -314 -105 -575 -105 -580 0 -6 -195 -10 -520
-10 l-520 0 0 -1315 0 -1315 43 6 c729 107 1358 381 1919 836 144 117 418 391
534 533 483 596 767 1276 850 2037 23 208 23 600 0 803 -75 653 -294 1247
-655 1770 -254 369 -617 732 -986 986 -691 476 -1519 711 -2365 672z"/>
</g>
</svg>
