<?xml version="1.0" standalone="no"?>
<!DOCTYPE svg PUBLIC "-//W3C//DTD SVG 20010904//EN"
 "http://www.w3.org/TR/2001/REC-SVG-20010904/DTD/svg10.dtd">
<svg version="1.0" xmlns="http://www.w3.org/2000/svg"
 width="225.000000pt" height="225.000000pt" viewBox="0 0 225.000000 225.000000"
 preserveAspectRatio="xMidYMid meet">

<g transform="translate(0.000000,225.000000) scale(0.100000,-0.100000)"
fill="#000000" stroke="none">
<path d="M538 2001 c-144 -46 -251 -158 -293 -302 -14 -49 -15 -124 -13 -595
3 -532 3 -540 25 -594 46 -111 142 -207 253 -253 55 -22 58 -22 615 -22 557 0
560 0 615 22 111 46 207 142 253 253 22 55 22 58 22 615 0 557 0 560 -22 615
-46 111 -142 207 -253 253 -54 22 -61 22 -600 24 -506 2 -549 1 -602 -16z
m1144 -163 c53 -24 123 -92 150 -146 l23 -47 0 -520 c0 -583 3 -554 -75 -639
-23 -25 -63 -55 -88 -68 l-47 -23 -520 0 -520 0 -47 23 c-25 13 -65 43 -88 68
-78 85 -75 59 -78 617 -3 565 -3 569 68 650 48 54 92 83 146 96 22 5 255 9
539 8 444 -2 504 -4 537 -19z"/>
<path d="M1571 1684 c-44 -56 -8 -134 62 -134 67 0 105 92 57 140 -31 31 -93
27 -119 -6z"/>
<path d="M988 1551 c-145 -48 -251 -158 -293 -305 -23 -78 -16 -209 13 -286
43 -109 141 -208 252 -252 79 -32 251 -32 330 0 111 44 208 141 252 252 18 45
22 75 22 165 0 90 -4 120 -22 165 -44 111 -142 209 -252 252 -78 30 -224 35
-302 9z m257 -172 c52 -24 120 -95 143 -147 24 -57 21 -167 -6 -224 -27 -54
-97 -123 -150 -146 -49 -21 -165 -21 -214 0 -52 23 -123 91 -146 141 -59 127
-26 256 90 350 73 59 191 69 283 26z"/>
</g>
</svg>
