<?xml version="1.0" standalone="no"?>
<!DOCTYPE svg PUBLIC "-//W3C//DTD SVG 20010904//EN"
 "http://www.w3.org/TR/2001/REC-SVG-20010904/DTD/svg10.dtd">
<svg version="1.0" xmlns="http://www.w3.org/2000/svg"
 width="225.000000pt" height="135.000000pt" viewBox="0 0 225.000000 135.000000"
 preserveAspectRatio="xMidYMid meet">

<g transform="translate(0.000000,135.000000) scale(0.100000,-0.100000)"
fill="#000000" stroke="none">
<path d="M499 1165 c-14 -8 -35 -27 -45 -42 -18 -26 -19 -55 -22 -428 -3 -447
-1 -463 57 -502 l34 -23 602 0 602 0 34 23 c19 13 39 38 46 57 17 49 17 801 0
850 -7 19 -27 44 -46 57 l-34 23 -601 0 c-499 -1 -605 -3 -627 -15z m1227 -59
c10 -8 17 -16 14 -19 -222 -187 -607 -500 -615 -500 -8 0 -496 397 -615 500
-3 3 4 11 14 19 29 21 1173 21 1202 0z m-993 -285 c109 -91 194 -168 190 -171
-35 -31 -401 -328 -410 -334 -10 -6 -13 66 -13 344 0 335 1 351 18 338 10 -7
106 -87 215 -177z m1015 -337 l-3 -177 -213 174 -212 174 37 32 c21 18 117 97
213 177 l175 146 3 -175 c1 -96 1 -254 0 -351z m-708 80 c87 -71 80 -71 157
-9 37 30 73 53 79 51 24 -9 442 -361 438 -368 -7 -10 -1171 -11 -1178 0 -2 4
35 40 82 79 250 207 356 293 361 293 4 0 31 -21 61 -46z"/>
</g>
</svg>
