<?xml version="1.0" standalone="no"?>
<!DOCTYPE svg PUBLIC "-//W3C//DTD SVG 20010904//EN"
 "http://www.w3.org/TR/2001/REC-SVG-20010904/DTD/svg10.dtd">
<svg version="1.0" xmlns="http://www.w3.org/2000/svg"
 width="148.000000pt" height="148.000000pt" viewBox="0 0 148.000000 148.000000"
 preserveAspectRatio="xMidYMid meet">

<g transform="translate(0.000000,148.000000) scale(0.100000,-0.100000)"
fill="#000000" stroke="none">
<path d="M778 933 c-3 -496 -3 -498 -26 -541 -45 -84 -147 -129 -233 -103 -82
25 -149 113 -149 196 0 113 113 217 221 202 l39 -5 0 119 0 119 -59 0 c-33 0
-87 -9 -120 -19 -309 -96 -411 -474 -193 -712 166 -181 446 -187 621 -11 117
117 131 171 131 523 l0 267 78 -39 c75 -39 151 -59 218 -59 l34 0 0 115 0 115
-30 0 c-50 0 -133 37 -187 85 -58 51 -100 126 -109 197 l-7 48 -113 0 -113 0
-3 -497z"/>
</g>
</svg>
